<svg width="380" height="480" viewBox="0 0 380 480" fill="none" xmlns="http://www.w3.org/2000/svg">
<path fill-rule="evenodd" clip-rule="evenodd" d="M184.262 92.4901C179.654 87.0814 176.536 80.4529 177.057 73.0255C178.558 51.625 208.349 56.3328 214.143 67.1339C219.938 77.9351 219.25 105.333 211.76 107.263C208.774 108.033 202.411 106.147 195.935 102.244L200 131H176L184.262 92.4901Z" fill="#FBB9A2"/>
<path fill-rule="evenodd" clip-rule="evenodd" d="M200.464 54.6853C197.301 54.1665 188.784 53.8099 187.213 53.8101C186.21 53.8101 185.122 54.0395 184.527 53.1178C184.041 52.3631 184.219 51.0867 184.074 50.2109C183.905 49.1935 183.665 48.1892 183.423 47.1874C182.733 44.3369 181.69 41.625 180.231 39.0788C177.493 34.3019 173.481 30.5601 168.417 28.3828C162.824 25.9787 156.496 25.4282 150.48 25.9158C144.043 26.4375 138.216 28.5626 132.138 30.5624C126.346 32.4681 120.28 33.2182 114.222 32.2876C108.119 31.35 103.507 28.042 98.3587 24.9023C93.0885 21.688 87.0657 19.5857 80.8354 20.069C75.0196 20.5203 69.6594 22.9216 64.8503 26.1295C60.3509 29.1308 56.6383 32.7418 54.5422 37.824C52.2873 43.2909 52.2894 49.2918 55.9974 54.1233C61.3721 61.1265 71.3499 62.9376 79.651 62.7575C84.4525 62.6537 89.1682 61.7772 93.7014 60.1828C99.7469 58.0564 104.971 54.4523 110.627 51.528C113.281 50.1558 116.025 49.0288 118.901 48.217C121.691 47.4289 124.44 47.0675 126.966 48.7533C129.639 50.5367 132.034 52.2885 135.092 53.4049C138.026 54.476 141.133 55.075 144.258 55.0509C150.339 55.0039 156.333 53.1093 162.239 51.8402C167.054 50.8056 172.207 49.7743 177.117 50.769C179.166 51.1841 182.159 52.041 182.899 54.1702C170.444 56.4274 165.553 71.8302 169.064 83.1372C170.959 89.24 182.35 96.3742 186.779 93.1658C189.585 91.1333 187.881 88.4648 186.779 86.7033C184.668 83.3299 183.945 78.9967 187.852 76.648C191.222 74.6224 194.765 79.4327 194.832 79.4274C195.758 79.3544 203.76 74.8285 209.274 68.2241C214.713 68.5466 215.539 64.96 214.24 62.0269C212.941 59.0938 204.834 55.4024 200.464 54.6853Z" fill="#191847"/>
<path fill-rule="evenodd" clip-rule="evenodd" d="M156.644 214C158.447 238.61 274.607 311.064 275.284 313.096C275.586 314 263.534 342.56 239.128 398.778L249.282 402.724C286.716 343.185 304.471 310.244 302.549 303.9C299.796 294.817 269.754 264.938 212.422 214.262L156.644 214Z" fill="#FBB9A2"/>
<path fill-rule="evenodd" clip-rule="evenodd" d="M241.8 386.082L258.379 392.117C293.336 352.674 307.038 320.131 304.54 303.549C302.874 292.495 272.936 262.665 214.724 214.06L155.455 214.06C157.477 271.053 265.143 313.313 266.583 315.742C268.023 318.171 253.851 341.957 241.8 386.082Z" fill="#27241D"/>
<path fill-rule="evenodd" clip-rule="evenodd" d="M235.392 396.84C233.32 399.263 232.03 401.172 231.523 402.565C230.906 404.26 230.288 406.835 229.669 410.292C231.635 411.007 249.302 417.437 282.67 429.582C285.704 425.53 285.804 422.783 282.969 421.34C280.134 419.896 277.788 418.671 275.932 417.664L255.295 397.716C254.897 397.333 254.264 397.343 253.881 397.74C253.874 397.747 253.868 397.754 253.861 397.761L250.88 401.026C247.666 401.308 245.201 401.136 243.483 400.511C242.088 400.003 240.366 398.738 238.317 396.716C237.531 395.94 236.265 395.948 235.489 396.734C235.456 396.768 235.423 396.803 235.392 396.84Z" fill="#B8B2A7"/>
<path fill-rule="evenodd" clip-rule="evenodd" d="M170 214L118.254 338.227L67.3958 443.25H79.3949L210.674 214H170Z" fill="#FBB9A2"/>
<path fill-rule="evenodd" clip-rule="evenodd" d="M66.6781 438.402C65.5594 441.388 65 443.623 65 445.106C65 446.909 65.3004 449.54 65.9012 453C67.9932 453 86.7938 453 122.303 453C123.769 448.154 122.923 445.539 119.765 445.152C116.607 444.766 113.984 444.417 111.895 444.106L85.68 432.419C85.1756 432.194 84.5843 432.421 84.3595 432.925C84.3556 432.934 84.3519 432.942 84.3483 432.951L82.6632 437.039C79.7399 438.403 77.3644 439.085 75.5367 439.085C74.0517 439.085 72.001 438.485 69.3845 437.285C68.3804 436.825 67.1933 437.266 66.733 438.27C66.7131 438.313 66.6948 438.357 66.6781 438.402Z" fill="#B8B2A7"/>
<path fill-rule="evenodd" clip-rule="evenodd" d="M71.9886 421.433L98.6507 426.433C119.266 396.125 205.541 271.852 215 214H155.644C124.055 255.821 91.639 390.624 71.9886 421.433Z" fill="#423D33"/>
<path fill-rule="evenodd" clip-rule="evenodd" d="M260 186.617L296.235 170.704C302.582 164.379 308.711 159.572 314.623 156.282C316.39 155.719 319.41 155.549 316.188 160.255C312.966 164.961 309.789 170.056 311.076 171.705C312.364 173.355 316.093 171.534 317.566 174.216C318.549 176.004 312.262 178.143 298.707 180.633L271.57 201.439L260 186.617ZM113.508 191L134 195.066C113.392 233.471 102.34 253.826 100.845 256.13C97.4804 261.315 100.62 270.817 101.779 275.821C94.5044 277.515 97.3734 266.565 88.1672 268.851C79.7641 270.938 72.6394 276.293 64.8039 269.071C63.8406 268.183 63.1354 265.407 66.4198 263.984C74.6026 260.437 86.692 253.796 88.6523 251.218C91.3256 247.702 99.6109 227.629 113.508 191Z" fill="#FBB9A2"/>
<path fill-rule="evenodd" clip-rule="evenodd" d="M189.695 114.332L198.342 112.849C217.176 131.119 224.862 175.012 237.414 180.822C249.281 186.316 266.104 181 286.1 173.822L292.224 187.505C274.055 207.161 235.349 223.767 219.66 214.287C194.576 199.13 188.786 144.994 189.695 114.332Z" fill="#A61B1B"/>
<path fill-rule="evenodd" clip-rule="evenodd" d="M152 223C186.672 223 212.176 223 228.511 223C232.008 223 231.349 217.952 230.843 215.404C225.011 186.004 202.241 154.312 202.241 112.461L180.172 109C161.917 138.358 155.605 174.505 152 223Z" fill="#DDE3E9"/>
<path fill-rule="evenodd" clip-rule="evenodd" d="M144.369 193.233C128.771 221.368 115.661 241.623 105.037 254L89 250.859C99.3306 186.791 129.247 139.504 178.748 109H182.731L187.486 109C207.299 176.537 212.761 221.537 203.872 244H135C136.09 227.563 139.583 210.181 144.369 193.233Z" fill="#D91A1A"/>
</svg>
