<svg width="32" height="32" viewBox="0 0 32 32" fill="none" xmlns="http://www.w3.org/2000/svg">
<g id="arrow-right-square-fill" clip-path="url(#clip0_580_1153)">
<path id="Vector" d="M0 28C0 29.0609 0.421427 30.0783 1.17157 30.8284C1.92172 31.5786 2.93913 32 4 32H28C29.0609 32 30.0783 31.5786 30.8284 30.8284C31.5786 30.0783 32 29.0609 32 28V4C32 2.93913 31.5786 1.92172 30.8284 1.17157C30.0783 0.421427 29.0609 0 28 0L4 0C2.93913 0 1.92172 0.421427 1.17157 1.17157C0.421427 1.92172 0 2.93913 0 4L0 28ZM9 15H20.586L16.292 10.708C16.1042 10.5202 15.9987 10.2656 15.9987 10C15.9987 9.73445 16.1042 9.47977 16.292 9.292C16.4798 9.10423 16.7344 8.99874 17 8.99874C17.2656 8.99874 17.5202 9.10423 17.708 9.292L23.708 15.292C23.8011 15.3849 23.875 15.4952 23.9254 15.6167C23.9758 15.7382 24.0018 15.8685 24.0018 16C24.0018 16.1315 23.9758 16.2618 23.9254 16.3833C23.875 16.5048 23.8011 16.6151 23.708 16.708L17.708 22.708C17.5202 22.8958 17.2656 23.0013 17 23.0013C16.7344 23.0013 16.4798 22.8958 16.292 22.708C16.1042 22.5202 15.9987 22.2656 15.9987 22C15.9987 21.7344 16.1042 21.4798 16.292 21.292L20.586 17H9C8.73478 17 8.48043 16.8946 8.29289 16.7071C8.10536 16.5196 8 16.2652 8 16C8 15.7348 8.10536 15.4804 8.29289 15.2929C8.48043 15.1054 8.73478 15 9 15Z" fill="#D91A1A"/>
</g>
<defs>
<clipPath id="clip0_580_1153">
<rect width="32" height="32" fill="white"/>
</clipPath>
</defs>
</svg>
