<svg width="32" height="32" viewBox="0 0 32 32" fill="none" xmlns="http://www.w3.org/2000/svg">
<g id="arrow-left-square-fill" clip-path="url(#clip0_580_1152)">
<path id="Vector" d="M32 28C32 29.0609 31.5786 30.0783 30.8284 30.8284C30.0783 31.5786 29.0609 32 28 32H4C2.93913 32 1.92172 31.5786 1.17157 30.8284C0.421427 30.0783 0 29.0609 0 28V4C0 2.93913 0.421427 1.92172 1.17157 1.17157C1.92172 0.421427 2.93913 0 4 0L28 0C29.0609 0 30.0783 0.421427 30.8284 1.17157C31.5786 1.92172 32 2.93913 32 4V28ZM23 15H11.414L15.708 10.708C15.8958 10.5202 16.0013 10.2656 16.0013 10C16.0013 9.73445 15.8958 9.47977 15.708 9.292C15.5202 9.10423 15.2656 8.99874 15 8.99874C14.7344 8.99874 14.4798 9.10423 14.292 9.292L8.292 15.292C8.19887 15.3849 8.12499 15.4952 8.07457 15.6167C8.02416 15.7382 7.99821 15.8685 7.99821 16C7.99821 16.1315 8.02416 16.2618 8.07457 16.3833C8.12499 16.5048 8.19887 16.6151 8.292 16.708L14.292 22.708C14.4798 22.8958 14.7344 23.0013 15 23.0013C15.2656 23.0013 15.5202 22.8958 15.708 22.708C15.8958 22.5202 16.0013 22.2656 16.0013 22C16.0013 21.7344 15.8958 21.4798 15.708 21.292L11.414 17H23C23.2652 17 23.5196 16.8946 23.7071 16.7071C23.8946 16.5196 24 16.2652 24 16C24 15.7348 23.8946 15.4804 23.7071 15.2929C23.5196 15.1054 23.2652 15 23 15Z" fill="#D91A1A"/>
</g>
<defs>
<clipPath id="clip0_580_1152">
<rect width="32" height="32" fill="white"/>
</clipPath>
</defs>
</svg>
